<?xml version="1.0" encoding="UTF-8"?>
<svg id="Calque_1" xmlns="http://www.w3.org/2000/svg" xmlns:xlink="http://www.w3.org/1999/xlink" viewBox="0 0 47 64.9">
  <defs>
    <style>
      .cls-1 {
        fill: #a1c2fa;
      }

      .cls-2 {
        fill: #fff;
      }

      .cls-3 {
        fill: #4285f4;
      }

      .cls-4 {
        fill: url(#Dégradé_sans_nom);
      }
    </style>
    <linearGradient id="Dégradé_sans_nom" data-name="Dégradé sans nom" x1="-354.77" y1="69.55" x2="-354.77" y2="68.39" gradientTransform="translate(5819.9 1164.26) scale(16.3 -16.4)" gradientUnits="userSpaceOnUse">
      <stop offset="0" stop-color="#1a237e" stop-opacity=".2"/>
      <stop offset="1" stop-color="#1a237e" stop-opacity="0"/>
    </linearGradient>
  </defs>
  <polygon class="cls-2" points="15.32 3.42 6.44 3.75 2.69 11.4 3.18 57.58 9.7 61.4 40.81 60.91 44.31 52.93 43.65 20.93 24.68 2.28 15.32 3.42"/>
  <g id="Calque_1-2" data-name="Calque_1">
    <g id="Calque_1-2">
      <g id="Page-1">
        <g id="Consumer-Apps-Docs-Large-VD-R8">
          <g id="Hero">
            <g id="Personal">
              <g id="Docs-icon">
                <g id="Group">
                  <g id="Clipped">
                    <g id="Path">
                      <path class="cls-3" d="M26,5.73l6.8,8.18.4.49.6.39,7.18,5.74v33.58c0,2.73-2.17,4.96-4.82,4.96H10.84c-2.65,0-4.82-2.24-4.82-4.96V10.7c0-2.73,2.17-4.96,4.82-4.96h15.02M26.1,0H10.1c-5.6,0-10.1,4.5-10.1,10.1v44.7c0,5.6,4.5,10.1,10.1,10.1h26.8c5.5,0,10.1-4.5,10.1-10.1V21.6s-13.6-10.39-13.6-10.39L26.1,0h0Z"/>
                    </g>
                  </g>
                  <g id="Clipped-2">
                    <polygon id="Path-2" class="cls-4" points="27.3 19.09 47 40.3 47 21.6 27.3 19.09"/>
                  </g>
                  <g id="Clipped-3">
                    <path id="Shape" class="cls-3" d="M13.2,45.3h14.7c.8,0,1.5-.7,1.5-1.5h0c0-.8-.7-1.5-1.5-1.5h-14.7c-.8,0-1.5.7-1.5,1.5h0c0,.8.7,1.5,1.5,1.5ZM13.2,48.2h14.7c.8,0,1.5-.7,1.5-1.5h0c0-.8-.5-1.5-1.3-1.5h-14.9c-.8,0-1.5.7-1.5,1.5h0c0,.8.7,1.5,1.5,1.5ZM11.8,34h0c0,.8.7,1.5,1.5,1.5h20.5c.8,0,1.5-.7,1.5-1.5h0c0-.8-.7-1.5-1.5-1.5H13.2c-.8,0-1.5.7-1.5,1.5h.1ZM13.2,38.4h20.6c.8,0,1.5-.7,1.5-1.5h0c0-.8-.8-1.5-1.6-1.5H13.2c-.8,0-1.5.7-1.5,1.5h0c0,.8.7,1.5,1.5,1.5Z"/>
                  </g>
                  <g id="Clipped-4">
                    <g id="Group-2">
                      <path id="Path-3" class="cls-1" d="M26.1,0v15.7c0,3.2,2.9,5.9,6.5,5.9h14.4L26.1,0Z"/>
                    </g>
                  </g>
                </g>
              </g>
            </g>
          </g>
        </g>
      </g>
    </g>
    <rect class="cls-3" x="11.7" y="33.9" width="1.7" height="3.2"/>
    <polygon class="cls-3" points="35.3 33.8 33.4 33.9 33.4 36.9 35.3 36.9 35.3 33.8"/>
    <rect class="cls-3" x="11.7" y="43.8" width="1.4" height="2.9"/>
    <polygon class="cls-3" points="29.4 46.8 27.3 46.9 27.3 43.8 29.4 43.8 29.4 46.8"/>
  </g>
</svg>